<?xml version="1.0" standalone="no"?>
<!DOCTYPE svg PUBLIC "-//W3C//DTD SVG 20010904//EN"
 "http://www.w3.org/TR/2001/REC-SVG-20010904/DTD/svg10.dtd">
<svg version="1.0" xmlns="http://www.w3.org/2000/svg"
 width="419.000000pt" height="419.000000pt" viewBox="0 0 419.000000 419.000000"
 preserveAspectRatio="xMidYMid meet">
<metadata>
Created by potrace 1.14, written by Peter Selinger 2001-2017
</metadata>
<g transform="translate(0.000000,419.000000) scale(0.100000,-0.100000)"
fill="#000000" stroke="none">
<path d="M1473 3687 l-41 -64 -137 -8 c-75 -4 -140 -3 -144 1 -4 5 -16 30 -25
57 l-18 47 -76 0 -77 0 -93 -67 -93 -68 -132 -230 c-101 -176 -161 -298 -258
-520 l-126 -290 -114 -52 c-63 -29 -115 -59 -117 -67 -2 -9 4 -171 12 -360 9
-189 16 -351 16 -360 0 -13 17 -16 97 -18 l98 -3 53 -555 c30 -305 57 -558 61
-561 3 -4 107 13 231 36 l225 42 635 -32 635 -33 632 33 633 33 232 -44 c128
-24 233 -42 234 -41 0 1 24 245 53 542 28 297 54 550 57 563 4 21 9 22 99 22
80 0 95 2 95 16 0 9 7 171 16 360 8 189 14 352 12 360 -2 9 -51 38 -118 68
l-114 52 -126 290 c-98 225 -156 341 -259 521 l-133 231 -91 66 -92 67 -79 -3
-79 -3 -16 -47 c-9 -26 -19 -50 -23 -53 -3 -4 -68 -3 -143 1 l-137 7 -41 64
c-40 61 -43 63 -77 58 -19 -2 -56 -7 -82 -11 -49 -6 -57 -18 -58 -74 -1 -53
-2 -53 -206 -31 l-189 20 -189 -20 c-147 -16 -190 -18 -196 -9 -4 7 -11 34
-14 60 l-6 48 -48 6 c-26 4 -63 9 -82 12 -35 5 -37 3 -77 -59z"/>
</g>
</svg>
